<?xml version="1.0" standalone="no"?>
<!DOCTYPE svg PUBLIC "-//W3C//DTD SVG 20010904//EN"
 "http://www.w3.org/TR/2001/REC-SVG-20010904/DTD/svg10.dtd">
<svg version="1.0" xmlns="http://www.w3.org/2000/svg"
 width="655.000000pt" height="463.000000pt" viewBox="0 0 655.000000 463.000000"
 preserveAspectRatio="xMidYMid meet">

<g transform="translate(0.000000,463.000000) scale(0.100000,-0.100000)"
fill="#8ae234" stroke="none">
<path d="M1512 4619 c-205 -34 -359 -256 -322 -466 29 -166 133 -283 295 -329
52 -15 130 -18 603 -21 l542 -5 0 -1131 c-1 -627 -5 -1179 -10 -1237 -12 -137
-42 -199 -142 -299 -89 -88 -181 -151 -296 -202 -343 -150 -715 -122 -1252 95
l-85 34 -5 474 -5 474 -37 76 c-103 207 -349 286 -563 182 -81 -40 -150 -106
-185 -177 -46 -95 -51 -184 -48 -925 l3 -654 120 -55 c629 -288 1037 -414
1447 -446 242 -18 526 14 755 88 l83 26 992 2 c987 2 993 2 1070 24 133 38
199 79 253 157 74 109 85 276 26 401 -34 73 -109 153 -174 187 -89 46 -127 49
-620 55 l-467 6 2 511 3 511 303 3 302 2 0 -92 c0 -101 19 -206 46 -264 47
-98 202 -199 324 -210 180 -17 367 92 431 251 l24 60 3 618 c2 401 -1 637 -8
674 -13 75 -42 132 -97 193 -53 59 -111 95 -194 121 -200 62 -426 -45 -499
-238 -17 -44 -24 -87 -28 -181 l-5 -122 -301 2 -301 3 -3 501 -2 501 377 6
c207 4 643 7 970 7 l593 0 0 -207 c0 -376 22 -465 135 -572 175 -165 433 -155
608 26 46 47 73 101 88 177 7 33 15 52 20 45 4 -6 14 -9 23 -6 13 5 15 17 10
66 -7 63 0 111 16 111 6 0 10 -38 10 -90 l0 -90 29 0 c67 0 115 83 92 159 -6
22 -23 49 -38 60 -34 28 -92 28 -121 1 l-22 -21 0 25 c0 13 7 26 15 30 8 3 15
12 15 21 0 13 19 15 120 15 l120 0 0 33 c0 18 -5 38 -11 44 -14 14 -39 6 -39
-13 0 -8 -10 -14 -24 -14 -22 0 -23 2 -14 28 15 38 2 99 -27 128 -29 29 -98
33 -133 8 -21 -14 -22 -14 -22 10 0 42 33 66 89 66 69 0 95 23 94 81 -1 24 -2
65 -2 91 0 50 -17 71 -36 45 -18 -25 -99 -23 -125 3 -24 24 -26 40 -5 40 8 0
15 7 15 15 0 11 13 15 54 15 36 0 61 6 76 18 41 33 37 167 -6 167 -17 0 -19
-7 -19 -60 0 -69 -16 -82 -20 -16 -4 61 -33 96 -79 96 -36 0 -36 0 -36 44 0
35 3 42 12 33 18 -18 53 -15 71 6 13 14 37 99 37 129 0 2 5 1 10 -2 16 -10 12
-68 -6 -94 -20 -28 -8 -44 32 -39 29 3 29 3 29 74 0 79 -18 114 -60 114 -31 0
-46 -22 -59 -86 -14 -68 -30 -74 -34 -13 -2 32 2 50 13 59 31 25 18 47 -31 54
-72 9 -4722 5 -4782 -5z m4832 -335 c10 -25 7 -94 -4 -94 -15 0 -30 36 -30 74
0 38 22 51 34 20z m65 -308 c7 -12 11 -34 9 -47 -3 -21 -9 -24 -50 -27 -37 -2
-51 1 -67 17 -25 25 -27 51 -6 51 8 0 15 7 15 15 0 11 11 15 43 15 36 0 46 -4
56 -24z m-1 -254 c17 -22 15 -72 -5 -94 -37 -41 -93 -9 -93 53 0 62 61 87 98
41z m0 -284 c15 -15 16 -63 2 -89 -19 -35 -30 -20 -30 41 0 60 6 70 28 48z"/>
</g>
</svg>
