<?xml version="1.0" encoding="UTF-8" standalone="no"?>
<!-- Created with Inkscape (http://www.inkscape.org/) -->

<svg
   width="755.90552"
   height="755.90552"
   viewBox="0 0 200 200"
   version="1.1"
   id="svg1"
   sodipodi:docname="LogoJhonFs.svg"
   inkscape:version="1.3.1 (91b66b0783, 2023-11-16, custom)"
   inkscape:export-filename="favicon.svg"
   inkscape:export-xdpi="96"
   inkscape:export-ydpi="96"
   xmlns:inkscape="http://www.inkscape.org/namespaces/inkscape"
   xmlns:sodipodi="http://sodipodi.sourceforge.net/DTD/sodipodi-0.dtd"
   xmlns="http://www.w3.org/2000/svg"
   xmlns:svg="http://www.w3.org/2000/svg">
  <sodipodi:namedview
     id="namedview1"
     pagecolor="#505050"
     bordercolor="#eeeeee"
     borderopacity="1"
     inkscape:showpageshadow="0"
     inkscape:pageopacity="0"
     inkscape:pagecheckerboard="0"
     inkscape:deskcolor="#505050"
     inkscape:document-units="px"
     inkscape:zoom="0.5"
     inkscape:cx="338"
     inkscape:cy="563"
     inkscape:window-width="1346"
     inkscape:window-height="705"
     inkscape:window-x="10"
     inkscape:window-y="33"
     inkscape:window-maximized="1"
     inkscape:current-layer="layer1"
     showguides="false">
    <sodipodi:guide
       position="-171.56362,-293.17618"
       orientation="0,-1"
       id="guide1"
       inkscape:locked="false" />
    <sodipodi:guide
       position="-136.48025,-225.08452"
       orientation="1,0"
       id="guide3"
       inkscape:locked="false" />
    <sodipodi:guide
       position="-18.706087,-216.94813"
       orientation="1,0"
       id="guide7"
       inkscape:locked="false" />
  </sodipodi:namedview>
  <defs
     id="defs1" />
  <g
     inkscape:label="Camada 1"
     inkscape:groupmode="layer"
     id="layer1">
    <path
       id="text1"
       style="font-size:211.667px;font-family:'Roboto Slab';-inkscape-font-specification:'Roboto Slab';fill:#ad7a7a;fill-opacity:1;stroke-width:0.279249"
       d="m 0.4279311,134.77495 -0.407162,0.65792 c -0.3617105,14.83981 3.9426357,26.17069 12.9130489,33.99266 8.970413,7.74887 21.051521,11.6233 36.243344,11.6233 8.903596,0 16.762525,-1.62628 23.576629,-4.87905 v -26.27961 c -1.12905,2.29815 -2.535733,4.39718 -4.26131,6.26726 -4.991598,5.33648 -11.430027,8.00472 -19.315319,8.00472 -9.042753,0 -16.059924,-2.41239 -21.051521,-7.23714 -4.919268,-4.89787 -7.378891,-12.28123 -7.378891,-22.15006 z"
       sodipodi:nodetypes="cccscccsccc"
       inkscape:export-filename="favicon.svg"
       inkscape:export-xdpi="96"
       inkscape:export-ydpi="96" />
    <path
       id="text1-3"
       style="font-size:211.667px;font-family:'Roboto Slab';-inkscape-font-specification:'Roboto Slab';fill:#ad7a7a;fill-opacity:1;stroke:#000000;stroke-width:0.281256;stroke-opacity:0.00879349"
       d="m 49.10553,19.090308 v 14.126786 l 26.874328,2.869075 0.226343,138.241691 c 21.088336,-12.557 20.977086,-34.00072 21.145996,-38.95473 l 5.17e-4,-33.34267 h 15.771646 c 10.34853,-7.030432 23.31861,-10.558007 38.92786,-10.558007 0.85324,0 1.68899,0.03438 2.53059,0.05684 v -6.74067 L 97.357365,84.758651 V 36.331632 h 80.991955 l 5.85184,33.550924 h 15.65848 V 19.090308 Z" />
    <path
       id="path7"
       style="font-size:211.667px;font-family:'Roboto Slab';-inkscape-font-specification:'Roboto Slab';fill:#ad7a7a;fill-opacity:1;stroke-width:0.245754"
       d="m -64.480417,413.49781 c -14.779399,0 -26.78827,3.66463 -36.025383,10.99415 -9.23713,7.26521 -13.85566,16.39659 -13.85566,27.39088 0,10.41565 4.14035,19.06189 12.42191,25.94136 7.949704,6.60378 18.528368,11.81792 32.379235,15.35342 h 41.191418 c -7.55565,-6.90824 -18.230156,-11.95845 -32.576609,-15.54679 -12.167518,-3.08612 -20.989958,-6.65432 -26.468525,-10.70483 -5.414868,-4.11483 -8.123111,-9.2265 -8.123111,-15.33443 0,-6.87946 2.675967,-12.43971 8.027134,-16.68313 5.351157,-4.30769 13.028013,-6.46098 23.029591,-6.46098 6.306722,0 11.848866,0.80266 16.626685,2.41002 4.77782,1.60735 8.600365,3.63302 11.467053,6.0762 l 3.534911,20.05852 h 14.238577 v -26.13472 c -4.84152,-4.82207 -11.275978,-8.90458 -19.302724,-12.24787 -7.963035,-3.40757 -16.817754,-5.1118 -26.564502,-5.1118 z"
       transform="matrix(1.0499276,0,0,1.0609648,219.50084,-342.19365)" />
  </g>
</svg>
