<?xml version="1.0" encoding="UTF-8" standalone="no"?>
<!-- Created with Inkscape (http://www.inkscape.org/) -->

<svg
   width="190.48894mm"
   height="152.78706mm"
   viewBox="0 0 190.48894 152.78706"
   version="1.1"
   id="svg1"
   sodipodi:docname="LogoJhonFs.svg"
   inkscape:version="1.3.1 (91b66b0783, 2023-11-16, custom)"
   xmlns:inkscape="http://www.inkscape.org/namespaces/inkscape"
   xmlns:sodipodi="http://sodipodi.sourceforge.net/DTD/sodipodi-0.dtd"
   xmlns="http://www.w3.org/2000/svg"
   xmlns:svg="http://www.w3.org/2000/svg">
  <sodipodi:namedview
     id="namedview1"
     pagecolor="#505050"
     bordercolor="#eeeeee"
     borderopacity="1"
     inkscape:showpageshadow="0"
     inkscape:pageopacity="0"
     inkscape:pagecheckerboard="0"
     inkscape:deskcolor="#505050"
     inkscape:document-units="mm"
     inkscape:zoom="0.5"
     inkscape:cx="-326"
     inkscape:cy="1745"
     inkscape:window-width="1346"
     inkscape:window-height="705"
     inkscape:window-x="10"
     inkscape:window-y="33"
     inkscape:window-maximized="1"
     inkscape:current-layer="layer1"
     showguides="true">
    <sodipodi:guide
       position="37.49945,144.21449"
       orientation="0,-1"
       id="guide1"
       inkscape:locked="false" />
    <sodipodi:guide
       position="72.58282,212.30615"
       orientation="1,0"
       id="guide3"
       inkscape:locked="false" />
    <sodipodi:guide
       position="190.35698,220.44255"
       orientation="1,0"
       id="guide7"
       inkscape:locked="false" />
  </sodipodi:namedview>
  <defs
     id="defs1" />
  <g
     inkscape:label="Camada 1"
     inkscape:groupmode="layer"
     id="layer1"
     transform="translate(209.06307,-340.39068)">
    <path
       id="text1"
       style="font-size:211.667px;font-family:'Roboto Slab';-inkscape-font-specification:'Roboto Slab';fill:#000000;stroke-width:0.264583"
       d="m -152.45168,340.52392 v 13.12581 l 15.75563,2.89388 v 89.45656 h 0.72709 v 40.53809 c 2.43111,-1.47053 4.70377,-3.18517 6.81767,-5.14439 8.54384,-7.92372 12.81576,-18.60351 12.81576,-32.03939 v -92.81087 l 16.846512,-2.89388 v -13.12581 h -16.846512 z m -56.20357,109.03727 -0.3878,0.62012 c -0.34451,13.98709 3.75515,24.66688 12.29899,32.03938 8.54384,7.30361 20.05045,10.95541 34.51985,10.95541 8.4802,0 15.96541,-1.53283 22.45548,-4.59869 v -24.76954 c -1.07536,2.16609 -2.41515,4.14451 -4.05867,5.90713 -4.75423,5.02984 -10.88649,7.54476 -18.39681,7.54476 -8.61274,0 -15.29622,-2.27377 -20.05045,-6.82129 -4.68534,-4.61643 -7.028,-11.57552 -7.028,-20.87728 z"
       sodipodi:nodetypes="cccccccsccccccccscccsccc"
       inkscape:export-filename="LogoJhonFs.png"
       inkscape:export-xdpi="96"
       inkscape:export-ydpi="96" />
    <path
       id="text1-3"
       style="font-size:211.667px;font-family:'Roboto Slab';-inkscape-font-specification:'Roboto Slab';fill:#000000;stroke:#000000;stroke-width:0.266484;stroke-opacity:0.00879349"
       d="m -162.29242,340.52392 v 13.31495 l 25.59637,2.70474 0.21601,130.29747 c 11.7208,-6.90652 16.54459,-16.64991 18.57923,-24.50806 -0.96781,-3.32859 -1.46038,-6.85986 -1.46038,-10.60194 0,-5.39037 1.01059,-10.37352 3.021,-14.95257 l 5.2e-4,-19.9285 h 19.260324 c 9.048347,-5.0009 19.978653,-7.51272 32.808334,-7.51272 0.262391,0 0.517026,0.0148 0.778247,0.017 v -8.75502 l -52.842765,-0.0289 V 356.7746 h 77.141023 l 5.573303,31.62339 h 14.913819 v -47.87408 z" />
    <path
       id="path7"
       style="font-size:211.667px;font-family:'Roboto Slab';-inkscape-font-specification:'Roboto Slab';fill:#000000;stroke-width:0.245754"
       sodipodi:type="inkscape:offset"
       inkscape:radius="0"
       inkscape:original="M -64.480469 413.49805 C -79.259882 413.49805 -91.268734 417.16266 -100.50586 424.49219 C -109.743 431.75741 -114.36133 440.88851 -114.36133 451.88281 C -114.36133 462.29847 -110.22101 470.94475 -101.93945 477.82422 C -93.989733 484.42801 -83.411428 489.64222 -69.560547 493.17773 L -28.369141 493.17773 C -35.924798 486.26948 -46.598845 481.2192 -60.945312 477.63086 C -73.112843 474.54474 -81.93549 470.97629 -87.414062 466.92578 C -92.828936 462.81095 -95.537109 457.69974 -95.537109 451.5918 C -95.537109 444.71233 -92.860938 439.15162 -87.509766 434.9082 C -82.158604 430.6005 -74.482057 428.44727 -64.480469 428.44727 C -58.17374 428.44727 -52.63134 429.25006 -47.853516 430.85742 C -43.075691 432.46477 -39.253409 434.49041 -36.386719 436.93359 L -32.851562 456.99219 L -18.613281 456.99219 L -18.613281 430.85742 C -23.454806 426.03535 -29.889262 421.95267 -37.916016 418.60938 C -45.879059 415.2018 -54.733711 413.49805 -64.480469 413.49805 z " />
  </g>
</svg>
