<?xml version="1.0" encoding="UTF-8" standalone="no"?>
<!-- Created with Inkscape (http://www.inkscape.org/) -->

<svg
   width="180.16794mm"
   height="200.96346mm"
   viewBox="0 0 180.16794 200.96346"
   version="1.1"
   id="svg1"
   xmlns="http://www.w3.org/2000/svg"
   xmlns:svg="http://www.w3.org/2000/svg">
  <defs
     id="defs1" />
  <g
     id="layer1"
     transform="translate(-1937.3112,-1191.3759)">
    <path
       style="color:#000000;-inkscape-font-specification:'Roboto Slab';fill:#ad7a7a;fill-opacity:1;stroke-linecap:round;-inkscape-stroke:none"
       d="m 2054.9792,1374.9466 4.3339,2.5039 -12.3418,7.125 z"
       id="path124" />
    <path
       style="color:#000000;-inkscape-font-specification:'Roboto Slab';fill:#ad7a7a;fill-opacity:1;stroke-linecap:round;-inkscape-stroke:none"
       d="m 2049.1432,1365.9212 c 6.4113,2.8084 13.7484,4.3868 21.9942,4.7012 l -6.5332,3.7735 -10.8418,-6.2618 -10.9297,13.1426 -10.5137,-6.0703 c 1.4789,-0.6373 2.9592,-1.2804 4.4355,-2.1328 z"
       id="path123" />
    <path
       style="color:#000000;-inkscape-font-specification:'Roboto Slab';fill:#ad7a7a;fill-opacity:1;stroke-linecap:round;-inkscape-stroke:none"
       d="m 2002.8991,1364.3314 14.1133,8.1484 c -0.724,-0.094 -1.4564,-0.1042 -2.1739,-0.2695 -4.915,-1.1715 -8.7898,-3.7686 -11.9394,-7.8789 z"
       id="path122" />
    <path
       style="color:#000000;-inkscape-font-specification:'Roboto Slab';fill:#ad7a7a;fill-opacity:1;stroke-linecap:round;-inkscape-stroke:none"
       d="m 1956.8952,1355.1693 12.3359,2.1191 v 5.0039 z"
       id="path121" />
    <path
       style="color:#000000;-inkscape-font-specification:'Roboto Slab';fill:#ad7a7a;fill-opacity:1;stroke-linecap:round;-inkscape-stroke:none"
       d="m 1979.8327,1351.015 14.0273,8.0976 c 0.6833,1.605 1.4131,3.2157 2.3496,4.8379 4.0505,7.0156 10.0025,11.6468 17.4121,13.4102 h 0.01 0.01 c 3.9024,0.9007 7.8968,0.8749 11.9238,0.053 l 16.7247,9.6543 c -7.2345,3.8129 -14.2137,5.5685 -21.0782,5.2305 l -30.5,-17.6094 c -1.2668,-1.733 -2.5478,-3.432 -3.7011,-5.4297 -3.673,-6.3617 -5.9997,-12.4222 -7.1758,-18.248 z"
       id="path120" />
    <path
       style="color:#000000;-inkscape-font-specification:'Roboto Slab';fill:#ad7a7a;fill-opacity:1;stroke-linecap:round;-inkscape-stroke:none"
       d="m 2092.0241,1341.1654 c -0.4438,0.5801 -0.8201,1.2091 -1.3223,1.748 0,0 0,0 0,0.01 -3.4704,3.6657 -7.6545,5.7207 -12.7851,6.3926 z"
       id="path118" />
    <path
       style="color:#000000;-inkscape-font-specification:'Roboto Slab';fill:#ad7a7a;fill-opacity:1;stroke-linecap:round;-inkscape-stroke:none"
       d="m 1957.6764,1337.7962 c 1.2915,0.9623 2.588,1.921 4.0645,2.7735 l 12.3906,7.1543 c 0.7736,6.9565 3.075,14.0982 6.9258,21.3965 l -6.5332,-3.7715 v -12.5196 l -16.8477,-2.8945 z"
       id="path117" />
    <path
       style="color:#000000;-inkscape-font-specification:'Roboto Slab';fill:#ad7a7a;fill-opacity:1;stroke-linecap:round;-inkscape-stroke:none"
       d="m 2030.1725,1327.2162 h 14.5215 c 0.4341,8.4709 2.8242,15.3754 7.6348,20.1152 l 0.014,0.014 0.016,0.014 c 2.5162,2.4068 5.5435,4.1771 8.957,5.4258 l -12.5742,7.2578 c -2.6335,-1.3701 -5.0964,-2.9382 -7.2949,-4.8164 v 0 c -7.49,-6.4643 -11.1757,-15.6392 -11.2715,-28.0078 z"
       id="path116" />
    <path
       style="color:#000000;-inkscape-font-specification:'Roboto Slab';fill:#ad7a7a;fill-opacity:1;stroke-linecap:round;-inkscape-stroke:none"
       d="m 2117.2975,1326.5736 c -0.3157,8.1701 -2.2814,15.0922 -6.0058,20.8672 l -30.4981,17.6074 c -2.135,0.2308 -4.249,0.4902 -6.5566,0.4902 -7.3465,0 -13.7588,-1.0135 -19.3926,-2.9082 l 14.0273,-8.0996 c 1.7322,0.211 3.4913,0.3828 5.3653,0.3828 8.1009,0 15.0883,-2.8377 20.3203,-8.373 l 0.01,-0.01 0.01,-0.01 c 2.7312,-2.9291 4.7063,-6.4023 6.0078,-10.3008 z"
       id="path115" />
    <path
       style="color:#000000;-inkscape-font-specification:'Roboto Slab';fill:#ad7a7a;fill-opacity:1;stroke-linecap:round;-inkscape-stroke:none"
       d="m 1998.1647,1311.9408 7.2617,12.5742 c -7.1201,4.6117 -11.9038,10.1353 -13.6035,16.6719 l -0.01,0.017 v 0.02 c -0.826,3.3819 -0.8436,6.8888 -0.2187,10.4687 l -12.5742,-7.2578 c -0.1303,-2.9663 0,-5.8828 0.5234,-8.7265 3e-4,0 0,0 0,0 1.8535,-9.7176 7.9568,-17.4968 18.6191,-23.7636 z"
       id="path114" />
    <path
       style="color:#000000;-inkscape-font-specification:'Roboto Slab';fill:#ad7a7a;fill-opacity:1;stroke-linecap:round;-inkscape-stroke:none"
       d="m 2117.4792,1307.015 v 14.2461 l -4.334,-11.7442 z"
       id="path112" />
    <path
       style="color:#000000;-inkscape-font-specification:'Roboto Slab';fill:#ad7a7a;fill-opacity:1;stroke-linecap:round;-inkscape-stroke:none"
       d="m 1952.3854,1306.8783 v 16.2988 c -0.2807,-0.6746 -0.6377,-1.315 -0.8535,-2.0195 -1.4431,-4.8425 -1.1316,-9.4963 0.8535,-14.2793 z"
       id="path111" />
    <path
       style="color:#000000;-inkscape-font-specification:'Roboto Slab';fill:#ad7a7a;fill-opacity:1;stroke-linecap:round;-inkscape-stroke:none"
       d="m 2117.4792,1293.3626 v 7.5411 l -10.8418,6.2597 5.916,16.0371 -10.5117,6.0704 c 0.1876,-1.5998 0.3691,-3.2032 0.3691,-4.9083 v -14.3066 c 5.6371,-4.1478 10.6736,-9.7104 15.0684,-16.6934 z"
       id="path110" />
    <path
       style="color:#000000;-inkscape-font-specification:'Roboto Slab';fill:#ad7a7a;fill-opacity:1;stroke-linecap:round;-inkscape-stroke:none"
       d="m 2097.1198,1292.9486 v 14.5176 c -2.5058,1.5973 -5.0975,2.9466 -7.8262,3.9121 -9.3426,3.2531 -19.1301,1.8571 -29.8887,-4.2442 l 7.2618,-12.5761 c 7.5531,3.8595 14.7281,5.2414 21.2382,3.4453 h 0.02 l 0.018,-0.01 c 3.3422,-0.9756 6.3898,-2.7134 9.1778,-5.0449 z"
       id="path109" />
    <path
       style="color:#000000;-inkscape-font-specification:'Roboto Slab';fill:#ad7a7a;fill-opacity:1;stroke-linecap:round;-inkscape-stroke:none"
       d="m 1952.3854,1280.2416 v 16.1972 c -1.0487,1.3946 -2.0787,2.8324 -3.0156,4.4551 -4.0504,7.0156 -5.086,14.4865 -2.9082,21.7852 v 0.01 0.01 c 1.1714,3.8307 3.1916,7.2786 5.918,10.3554 v 19.3067 c -6.9178,-4.3581 -11.9289,-9.5203 -15.0684,-15.6328 v -35.2207 c 0.8675,-1.9639 1.6981,-3.924 2.8516,-5.9219 3.6736,-6.3629 7.7585,-11.408 12.2168,-15.3398 z"
       id="path108" />
    <path
       style="color:#000000;-inkscape-font-specification:'Roboto Slab';fill:#ad7a7a;fill-opacity:1;stroke-linecap:round;-inkscape-stroke:none"
       d="m 1972.987,1270.7064 c 7.07,-0.6352 14.4816,1.3839 22.4043,5.877 l -7.2618,12.5742 c -7.553,-3.8595 -14.7282,-5.2415 -21.2382,-3.4453 l -0.02,0.01 -0.017,0.01 c -3.3422,0.9756 -6.3898,2.7134 -9.1778,5.0449 v -14.5176 c 2.5038,-1.5961 5.094,-2.945 7.8203,-3.9101 2.4647,-0.8588 4.9575,-1.4072 7.4903,-1.6348 z"
       id="path107" />
    <path
       style="color:#000000;-inkscape-font-specification:'Roboto Slab';fill:#ad7a7a;fill-opacity:1;stroke-linecap:round;-inkscape-stroke:none"
       d="m 1937.317,1262.4564 4.334,11.7441 -4.334,2.502 z"
       id="path106" />
    <path
       style="color:#000000;-inkscape-font-specification:'Roboto Slab';fill:#ad7a7a;fill-opacity:1;stroke-linecap:round;-inkscape-stroke:none"
       d="m 2102.4108,1260.5404 c 0.2807,0.6746 0.6377,1.3149 0.8535,2.0195 1.4431,4.8425 1.1316,9.4963 -0.8535,14.2793 z"
       id="path105" />
    <path
       style="color:#000000;-inkscape-font-specification:'Roboto Slab';fill:#ad7a7a;fill-opacity:1;stroke-linecap:round;-inkscape-stroke:none"
       d="m 1952.7545,1254.4466 c -0.1876,1.5997 -0.3691,3.2032 -0.3691,4.9082 v 14.3067 c -5.6371,4.1478 -10.6736,9.7104 -15.0684,16.6933 v -7.5429 l 10.8418,-6.2598 -5.9179,-16.0352 z"
       id="path104" />
    <path
       style="color:#000000;-inkscape-font-specification:'Roboto Slab';fill:#ad7a7a;fill-opacity:1;stroke-linecap:round;-inkscape-stroke:none"
       d="m 1976.8854,1234.4037 -14.1133,8.1484 c 0.4438,-0.5801 0.8201,-1.2092 1.3223,-1.748 0,0 0,0 0,-0.01 3.4708,-3.6662 7.6555,-5.7229 12.7871,-6.3945 z"
       id="path103" />
    <path
       style="color:#000000;-inkscape-font-specification:'Roboto Slab';fill:#ad7a7a;fill-opacity:1;stroke-linecap:round;-inkscape-stroke:none"
       d="m 2063.2018,1232.0228 12.5742,7.2578 c 0.1305,2.967 0,5.8842 -0.5234,8.7285 -3e-4,0 0,0 0,0 -1.8535,9.7177 -7.9567,17.4969 -18.6191,23.7637 l -7.2617,-12.5742 c 7.1196,-4.6116 11.9039,-10.1356 13.6035,-16.6719 l 0.01,-0.019 v -0.018 c 0.8261,-3.382 0.8437,-6.8907 0.2187,-10.4707 z"
       id="path102" />
    <path
       style="color:#000000;-inkscape-font-specification:'Roboto Slab';fill:#ad7a7a;fill-opacity:1;stroke-linecap:round;-inkscape-stroke:none"
       d="m 2102.4108,1231.3585 c 6.9182,4.3585 11.929,9.5236 15.0684,15.6368 v 35.2168 c -0.8676,1.9643 -1.6998,3.9234 -2.8536,5.9218 -3.6736,6.3629 -7.7565,11.41 -12.2148,15.3418 v -16.1972 c 1.0486,-1.3946 2.0768,-2.8324 3.0137,-4.4551 v 0 c 4.0504,-7.0156 5.0879,-14.4845 2.9101,-21.7832 v -0.01 -0.01 c -1.1714,-3.8308 -3.1916,-7.2786 -5.918,-10.3555 z"
       id="path100" />
    <path
       style="color:#000000;-inkscape-font-specification:'Roboto Slab';fill:#ad7a7a;fill-opacity:1;stroke-linecap:round;-inkscape-stroke:none"
       d="m 2006.0534,1223.6749 c 2.6348,1.3708 5.0993,2.9391 7.2988,4.8184 7.49,6.4642 11.1757,15.6392 11.2715,28.0078 h -14.5215 c -0.4341,-8.4709 -2.8242,-15.3754 -7.6348,-20.1152 l -0.016,-0.014 -0.014,-0.014 c -2.5156,-2.4062 -5.5426,-4.177 -8.955,-5.4257 z"
       id="path99" />
    <path
       style="color:#000000;-inkscape-font-specification:'Roboto Slab';fill:#ad7a7a;fill-opacity:1;stroke-linecap:round;-inkscape-stroke:none"
       d="m 2085.5651,1221.423 12.3398,7.125 -12.3398,-2.1211 z"
       id="path98" />
    <path
       style="color:#000000;-inkscape-font-specification:'Roboto Slab';fill:#ad7a7a;fill-opacity:1;stroke-linecap:round;-inkscape-stroke:none"
       d="m 1980.5592,1218.1789 c 7.3476,0 13.7602,1.0129 19.3946,2.9082 l -14.0293,8.0996 c -1.7323,-0.211 -3.4913,-0.3848 -5.3653,-0.3848 -8.1009,0 -15.0883,2.8377 -20.3203,8.373 l -0.01,0.01 -0.01,0.01 c -2.7312,2.9291 -4.7063,6.4023 -6.0078,10.3008 l -16.7207,9.6543 c 0.3157,-8.1705 2.283,-15.092 6.0078,-20.8672 l 30.4961,-17.6074 c 2.135,-0.2308 4.249,-0.4902 6.5566,-0.4902 z"
       id="path97" />
    <path
       style="color:#000000;-inkscape-font-specification:'Roboto Slab';fill:#ad7a7a;fill-opacity:1;stroke-linecap:round;-inkscape-stroke:none"
       d="m 2073.7389,1214.5949 6.5332,3.7734 v 12.5195 l 16.8477,2.8946 v 12.1386 c -1.2916,-0.9623 -2.5899,-1.9209 -4.0664,-2.7734 l -12.3887,-7.1523 c -0.7734,-6.9573 -3.0745,-14.1013 -6.9258,-21.4004 z"
       id="path95" />
    <path
       style="color:#000000;-inkscape-font-specification:'Roboto Slab';fill:#ad7a7a;fill-opacity:1;stroke-linecap:round;-inkscape-stroke:none"
       d="m 2037.7858,1211.2374 c 0.7266,0.095 1.4615,0.1053 2.1816,0.2715 4.9109,1.1727 8.7841,3.7685 11.9317,7.877 z"
       id="path93" />
    <path
       style="color:#000000;-inkscape-font-specification:'Roboto Slab';fill:#ad7a7a;fill-opacity:1;stroke-linecap:round;-inkscape-stroke:none"
       d="m 2011.9635,1202.4406 10.5137,6.0703 c -1.4789,0.6373 -2.9592,1.2804 -4.4355,2.1328 l -12.3887,7.1523 c -6.4115,-2.8086 -13.748,-4.3867 -21.9942,-4.7011 l 6.5313,-3.7735 10.8437,6.2618 z"
       id="path92" />
    <path
       style="color:#000000;-inkscape-font-specification:'Roboto Slab';fill:#ad7a7a;fill-opacity:1;stroke-linecap:round;-inkscape-stroke:none"
       d="m 2007.8229,1199.1417 -8.0059,9.627 -4.3339,-2.502 z"
       id="path91" />
    <path
       style="color:#000000;-inkscape-font-specification:'Roboto Slab';fill:#ad7a7a;fill-opacity:1;stroke-linecap:round;-inkscape-stroke:none"
       d="m 2033.5866,1191.4132 30.5,17.6094 c 1.2669,1.7331 2.5477,3.4339 3.7012,5.4316 3.6733,6.3624 5.9997,12.4236 7.1757,18.25 l -14.0254,-8.0996 c -0.6834,-1.6056 -1.4145,-3.2149 -2.3515,-4.8379 -4.0505,-7.0156 -10.0024,-11.6467 -17.4121,-13.4101 h -0.01 -0.01 c -3.9031,-0.9009 -7.898,-0.8754 -11.9258,-0.053 l -16.7207,-9.6542 c 7.2339,-3.8123 14.2121,-5.5704 21.0762,-5.2325 z"
       id="path90" />
    <path
       style="color:#000000;-inkscape-font-specification:'Roboto Slab';fill:#ad7a7a;fill-opacity:1;stroke-width:1;stroke-linecap:round;-inkscape-stroke:none"
       d="M 2105.7857,1278.1507 Z"
       id="path281" />
  </g>
</svg>
