<?xml version="1.0" encoding="UTF-8" standalone="no"?>
<!-- Created with Inkscape (http://www.inkscape.org/) -->

<svg
   width="190.48894mm"
   height="152.78706mm"
   viewBox="0 0 190.48894 152.78706"
   version="1.1"
   id="svg1"
   xmlns="http://www.w3.org/2000/svg"
   xmlns:svg="http://www.w3.org/2000/svg">
  <defs
     id="defs1" />
  <g
     id="layer1"
     transform="translate(209.06307,-340.39068)">
    <path
       id="text1"
       style="font-size:211.667px;font-family:'Roboto Slab';-inkscape-font-specification:'Roboto Slab';fill:#000000;stroke-width:0.264583"
       d="m -152.45168,340.52392 v 13.12581 l 15.75563,2.89388 v 89.45656 h 0.72709 v 40.53809 c 2.43111,-1.47053 4.70377,-3.18517 6.81767,-5.14439 8.54384,-7.92372 12.81576,-18.60351 12.81576,-32.03939 v -92.81087 l 16.846512,-2.89388 v -13.12581 h -16.846512 z m -56.20357,109.03727 -0.3878,0.62012 c -0.34451,13.98709 3.75515,24.66688 12.29899,32.03938 8.54384,7.30361 20.05045,10.95541 34.51985,10.95541 8.4802,0 15.96541,-1.53283 22.45548,-4.59869 v -24.76954 c -1.07536,2.16609 -2.41515,4.14451 -4.05867,5.90713 -4.75423,5.02984 -10.88649,7.54476 -18.39681,7.54476 -8.61274,0 -15.29622,-2.27377 -20.05045,-6.82129 -4.68534,-4.61643 -7.028,-11.57552 -7.028,-20.87728 z" />
    <path
       id="text1-3"
       style="font-size:211.667px;font-family:'Roboto Slab';-inkscape-font-specification:'Roboto Slab';fill:#000000;stroke:#000000;stroke-width:0.266484;stroke-opacity:0.00879349"
       d="m -162.29242,340.52392 v 13.31495 l 25.59637,2.70474 0.21601,130.29747 c 11.7208,-6.90652 16.54459,-16.64991 18.57923,-24.50806 -0.96781,-3.32859 -1.46038,-6.85986 -1.46038,-10.60194 0,-5.39037 1.01059,-10.37352 3.021,-14.95257 l 5.2e-4,-19.9285 h 19.260324 c 9.048347,-5.0009 19.978653,-7.51272 32.808334,-7.51272 0.262391,0 0.517026,0.0148 0.778247,0.017 v -8.75502 l -52.842765,-0.0289 V 356.7746 h 77.141023 l 5.573303,31.62339 h 14.913819 v -47.87408 z" />
    <path
       id="path7"
       style="font-size:211.667px;font-family:'Roboto Slab';-inkscape-font-specification:'Roboto Slab';fill:#000000;stroke-width:0.245754" />
  </g>
</svg>
