<svg version="1.2" xmlns="http://www.w3.org/2000/svg" viewBox="0 0 1386 148" width="1386" height="148"><style></style><path  d="m54.8 20.5v-4.8h27.1v2.5l-15.3 39.8h-6l14.5-37.5zm149 16.5v-21.3h22.4v4.8h-17.2v10.4q1.3-0.4 2.5-0.6 1.3-0.3 2.5-0.3 7.1 0 11.2 3.9 4.2 3.9 4.2 10.5 0 6.9-4.3 10.7-4.2 3.7-12 3.7-2.6 0-5.4-0.4-2.8-0.5-5.7-1.4v-5.7q2.5 1.3 5.3 2 2.7 0.7 5.7 0.7 4.9 0 7.8-2.6 2.8-2.5 2.8-7 0-4.4-2.8-7-2.9-2.5-7.8-2.5-2.3 0-4.6 0.5-2.2 0.5-4.6 1.6zm-135.4 70.9q-4 0-6.4 2.2-2.3 2.2-2.3 6 0 3.8 2.3 6 2.4 2.2 6.4 2.2 4.1 0 6.5-2.2 2.3-2.2 2.3-6 0-3.8-2.3-6-2.4-2.2-6.5-2.2zm-5.7-2.4q-3.7-0.9-5.7-3.4-2.1-2.6-2.1-6.2 0-5.1 3.6-8 3.7-2.9 9.9-2.9 6.4 0 10 2.9 3.6 2.9 3.6 8 0 3.6-2.1 6.2-2.1 2.5-5.7 3.4 4.1 0.9 6.4 3.8 2.3 2.8 2.3 6.8 0 6.2-3.7 9.4-3.8 3.3-10.8 3.3-7 0-10.7-3.3-3.8-3.2-3.8-9.4 0-4 2.4-6.8 2.3-2.9 6.4-3.8zm-2.1-9q0 3.2 2.1 5.1 2 1.8 5.7 1.8 3.7 0 5.8-1.8 2.1-1.9 2.1-5.1 0-3.3-2.1-5.2-2.1-1.8-5.8-1.8-3.7 0-5.7 1.8-2.1 1.9-2.1 5.2zm125.7 31.5v-4.8h9.3v-32.3l-10.1 2.1v-5.2l10.1-2.1h5.7v37.5h9.3v4.8zm48.2-38.5q-4.4 0-6.7 4.3-2.2 4.4-2.2 13.1 0 8.7 2.2 13.1 2.3 4.3 6.7 4.3 4.4 0 6.6-4.3 2.3-4.4 2.3-13.1 0-8.7-2.3-13.1-2.2-4.3-6.6-4.3zm0-4.5q7.1 0 10.8 5.6 3.8 5.6 3.8 16.3 0 10.7-3.8 16.3-3.7 5.6-10.8 5.6-7.1 0-10.9-5.6-3.7-5.6-3.7-16.3 0-10.7 3.7-16.3 3.8-5.6 10.9-5.6z"/><path  d="m24 76.3v-5h82v5z"/><path  d="m173 76.3v-5h82v5z"/><path  d="m136.9 54.6h4.8v15.8h15.8v4.8h-15.8v15.8h-4.8v-15.8h-15.8v-4.8h15.8z"/><path  d="m277.1 69.4v-4.7h36.4v4.7zm0 11.6v-4.8h36.3v4.8z"/><path  d="m364.8 20.5v-4.8h27.1v2.5l-15.3 39.8h-6l14.5-37.5zm149 16.5v-21.3h22.4v4.8h-17.2v10.4q1.3-0.4 2.5-0.6 1.3-0.3 2.5-0.3 7.1 0 11.2 3.9 4.2 3.9 4.2 10.5 0 6.9-4.3 10.7-4.2 3.7-12 3.7-2.6 0-5.4-0.4-2.8-0.5-5.7-1.4v-5.7q2.5 1.3 5.3 2 2.7 0.7 5.7 0.7 4.9 0 7.8-2.6 2.8-2.5 2.8-7 0-4.4-2.8-7-2.9-2.5-7.8-2.5-2.3 0-4.6 0.5-2.2 0.5-4.6 1.6zm-135.4 70.9q-4 0-6.4 2.2-2.3 2.2-2.3 6 0 3.8 2.3 6 2.4 2.2 6.4 2.2 4.1 0 6.5-2.2 2.3-2.2 2.3-6 0-3.8-2.3-6-2.4-2.2-6.5-2.2zm-5.7-2.4q-3.7-0.9-5.7-3.4-2.1-2.6-2.1-6.2 0-5.1 3.6-8 3.7-2.9 9.9-2.9 6.4 0 10 2.9 3.6 2.9 3.6 8 0 3.6-2.1 6.2-2.1 2.5-5.7 3.4 4.1 0.9 6.4 3.8 2.3 2.8 2.3 6.8 0 6.2-3.7 9.4-3.8 3.3-10.8 3.3-7 0-10.7-3.3-3.8-3.2-3.8-9.4 0-4 2.4-6.8 2.3-2.9 6.4-3.8zm-2.1-9q0 3.2 2.1 5.1 2 1.8 5.7 1.8 3.7 0 5.8-1.8 2.1-1.9 2.1-5.1 0-3.3-2.1-5.2-2.1-1.8-5.8-1.8-3.7 0-5.7 1.8-2.1 1.9-2.1 5.2zm125.7 31.5v-4.8h9.3v-32.3l-10.1 2.1v-5.2l10.1-2.1h5.7v37.5h9.3v4.8zm48.2-38.5q-4.4 0-6.7 4.3-2.2 4.4-2.2 13.1 0 8.7 2.2 13.1 2.3 4.3 6.7 4.3 4.4 0 6.6-4.3 2.3-4.4 2.3-13.1 0-8.7-2.3-13.1-2.2-4.3-6.6-4.3zm0-4.5q7.1 0 10.8 5.6 3.8 5.6 3.8 16.3 0 10.7-3.8 16.3-3.7 5.6-10.8 5.6-7.1 0-10.9-5.6-3.7-5.6-3.7-16.3 0-10.7 3.7-16.3 3.8-5.6 10.9-5.6z"/><path  d="m334 76.3v-5h82v5z"/><path  d="m483 76.3v-5h82v5z"/><path  d="m413.6 103.7l-3.2-3.8 78-68 3.2 3.8z"/><path  d="m402.4 31.7l3.2-3.8 80 70-3.2 3.8z"/><path  d="m653.8 20.5v-4.8h27.2v2.5l-15.4 39.8h-6l14.5-37.5zm57.7-0.6l1.7 2.8-10.2 5.5 10.2 5.5-1.7 2.8-9.5-5.8v10.7h-3.2v-10.7l-9.5 5.8-1.7-2.8 10.2-5.5-10.2-5.5 1.7-2.8 9.5 5.7v-10.6h3.2v10.6zm10.6 38.1v-4.8h9.3v-32.2l-10.1 2v-5.2l10.1-2h5.7v37.4h9.4v4.8zm48.1-38.5q-4.4 0-6.7 4.4-2.2 4.3-2.2 13.1 0 8.6 2.2 13 2.3 4.3 6.7 4.3 4.4 0 6.7-4.3 2.2-4.4 2.2-13 0-8.8-2.2-13.1-2.3-4.4-6.7-4.4zm0-4.5q7.1 0 10.8 5.6 3.8 5.6 3.8 16.4 0 10.6-3.8 16.3-3.7 5.6-10.8 5.6-7.1 0-10.9-5.6-3.7-5.7-3.7-16.3 0-10.8 3.7-16.4 3.8-5.6 10.9-5.6zm58.8 6.7h4.8v15.8h15.7v4.8h-15.7v15.7h-4.8v-15.7h-15.8v-4.8h15.8zm51.4 15.3v-21.3h22.4v4.9h-17.2v10.3q1.3-0.4 2.5-0.6 1.3-0.2 2.5-0.2 7.1 0 11.2 3.9 4.2 3.8 4.2 10.5 0 6.8-4.3 10.6-4.2 3.7-12 3.7-2.6 0-5.4-0.4-2.7-0.5-5.7-1.4v-5.7q2.6 1.4 5.3 2.1 2.7 0.6 5.7 0.6 4.9 0 7.8-2.5 2.8-2.6 2.8-7 0-4.5-2.8-7-2.9-2.6-7.8-2.6-2.3 0-4.6 0.5-2.2 0.5-4.6 1.6zm56.3-17.1l1.6 2.8-10.2 5.5 10.2 5.5-1.6 2.8-9.6-5.7v10.6h-3.2v-10.6l-9.5 5.7-1.6-2.8 10.1-5.5-10.1-5.5 1.6-2.8 9.5 5.8v-10.7h3.2v10.7zm21.9 18q-4.1 0-6.5 2.2-2.3 2.2-2.3 6 0 3.8 2.3 6 2.4 2.2 6.5 2.2 4 0 6.4-2.2 2.3-2.2 2.3-6 0-3.8-2.3-6-2.3-2.2-6.4-2.2zm-5.8-2.4q-3.6-0.9-5.7-3.5-2.1-2.5-2.1-6.1 0-5.1 3.6-8 3.7-3 10-3 6.3 0 9.9 3 3.6 2.9 3.6 8 0 3.6-2.1 6.1-2 2.6-5.7 3.5 4.1 0.9 6.4 3.7 2.4 2.8 2.4 6.9 0 6.1-3.8 9.4-3.8 3.3-10.7 3.3-7 0-10.8-3.3-3.7-3.3-3.7-9.4 0-4.1 2.3-6.9 2.3-2.8 6.4-3.7zm-2.1-9.1q0 3.3 2.1 5.1 2 1.9 5.8 1.9 3.6 0 5.7-1.9 2.1-1.8 2.1-5.1 0-3.3-2.1-5.1-2.1-1.8-5.7-1.8-3.8 0-5.8 1.8-2.1 1.8-2.1 5.1zm-198.9 81.5q-4.1 0-6.4 2.2-2.3 2.2-2.3 6 0 3.8 2.3 6 2.3 2.2 6.4 2.2 4.1 0 6.4-2.2 2.4-2.2 2.4-6 0-3.8-2.4-6-2.3-2.2-6.4-2.2zm-5.7-2.4q-3.7-0.9-5.8-3.5-2-2.5-2-6.1 0-5.1 3.6-8 3.6-3 9.9-3 6.3 0 9.9 3 3.6 2.9 3.6 8 0 3.6-2 6.1-2.1 2.6-5.7 3.5 4.1 0.9 6.4 3.7 2.3 2.8 2.3 6.9 0 6.1-3.8 9.4-3.7 3.3-10.7 3.3-7 0-10.7-3.3-3.8-3.3-3.8-9.4 0-4.1 2.3-6.9 2.4-2.8 6.5-3.7zm-2.1-9.1q0 3.3 2 5.1 2.1 1.9 5.8 1.9 3.7 0 5.8-1.9 2.1-1.8 2.1-5.1 0-3.3-2.1-5.1-2.1-1.8-5.8-1.8-3.7 0-5.8 1.8-2 1.8-2 5.1zm48.2-4.8h4.8v15.8h15.7v4.8h-15.7v15.8h-4.8v-15.8h-15.8v-4.8h15.8zm33.9 36.3v-4.8h9.3v-32.2l-10.1 2v-5.2l10.1-2h5.7v37.4h9.3v4.8zm48.2-38.5q-4.4 0-6.7 4.4-2.2 4.3-2.2 13 0 8.7 2.2 13.1 2.3 4.3 6.7 4.3 4.4 0 6.6-4.3 2.3-4.4 2.3-13.1 0-8.7-2.3-13-2.2-4.4-6.6-4.4zm0-4.5q7.1 0 10.8 5.6 3.8 5.6 3.8 16.3 0 10.7-3.8 16.4-3.7 5.6-10.8 5.6-7.1 0-10.9-5.6-3.7-5.7-3.7-16.4 0-10.7 3.7-16.3 3.8-5.6 10.9-5.6z"/><path  d="m640 76.3v-5h348v5z"/><path  d="m1075.8 58v-4.8h9.4v-32.3l-10.2 2.1v-5.2l10.1-2.1h5.8v37.5h9.3v4.8zm48.1-38.5q-4.4 0-6.6 4.3-2.2 4.4-2.2 13.1 0 8.7 2.2 13.1 2.2 4.3 6.6 4.3 4.5 0 6.7-4.3 2.2-4.4 2.2-13.1 0-8.7-2.2-13.1-2.2-4.3-6.7-4.3zm0-4.5q7.1 0 10.9 5.6 3.8 5.6 3.8 16.3 0 10.7-3.8 16.3-3.8 5.6-10.9 5.6-7.1 0-10.8-5.6-3.8-5.6-3.8-16.3 0-10.7 3.8-16.3 3.7-5.6 10.8-5.6zm37.7 19.6q-3.9 0-6.2 2.6-2.2 2.6-2.2 7.2 0 4.6 2.2 7.3 2.3 2.6 6.2 2.6 3.8 0 6-2.6 2.3-2.7 2.3-7.3 0-4.6-2.3-7.2-2.2-2.6-6-2.6zm11.3-17.9v5.2q-2.1-1.1-4.4-1.6-2.1-0.5-4.3-0.5-5.7 0-8.7 3.8-2.9 3.8-3.4 11.5 1.7-2.4 4.2-3.7 2.6-1.4 5.6-1.4 6.4 0 10 3.9 3.8 3.9 3.8 10.5 0 6.5-3.9 10.5-3.8 3.9-10.2 3.9-7.4 0-11.3-5.6-3.8-5.6-3.8-16.3 0-10 4.7-16 4.8-5.9 12.8-5.9 2.1 0 4.3 0.4 2.2 0.4 4.6 1.3zm-67.4 91.2q-4.1 0-6.4 2.2-2.4 2.2-2.4 6 0 3.8 2.4 6 2.3 2.2 6.4 2.2 4.1 0 6.4-2.2 2.4-2.2 2.4-6 0-3.8-2.4-6-2.3-2.2-6.4-2.2zm-5.7-2.4q-3.7-0.9-5.8-3.4-2-2.6-2-6.2 0-5.1 3.6-8 3.6-2.9 9.9-2.9 6.3 0 9.9 2.9 3.6 2.9 3.6 8 0 3.6-2.1 6.2-2 2.5-5.7 3.4 4.2 0.9 6.5 3.8 2.3 2.8 2.3 6.8 0 6.2-3.8 9.4-3.7 3.3-10.7 3.3-7 0-10.8-3.3-3.7-3.2-3.7-9.4 0-4 2.3-6.8 2.3-2.9 6.5-3.8zm-2.1-9q0 3.2 2 5.1 2.1 1.8 5.8 1.8 3.7 0 5.7-1.8 2.1-1.9 2.1-5.1 0-3.3-2.1-5.2-2-1.8-5.7-1.8-3.7 0-5.8 1.8-2 1.9-2 5.2zm44.7-7q-4.4 0-6.7 4.3-2.2 4.4-2.2 13.1 0 8.7 2.2 13.1 2.3 4.3 6.7 4.3 4.4 0 6.6-4.3 2.3-4.4 2.3-13.1 0-8.7-2.3-13.1-2.2-4.3-6.6-4.3zm0-4.5q7.1 0 10.8 5.6 3.8 5.6 3.8 16.3 0 10.7-3.8 16.3-3.7 5.6-10.8 5.6-7.1 0-10.9-5.6-3.7-5.6-3.7-16.3 0-10.7 3.7-16.3 3.8-5.6 10.9-5.6z"/><path  d="m1065 76.3v-5h119v5z"/><path  d="m1275.4 37v-21.3h22.4v4.8h-17.2v10.4q1.2-0.4 2.5-0.6 1.2-0.3 2.5-0.3 7.1 0 11.2 3.9 4.1 3.9 4.1 10.5 0 6.9-4.2 10.7-4.3 3.7-12 3.7-2.7 0-5.4-0.4-2.8-0.5-5.7-1.4v-5.7q2.5 1.3 5.2 2 2.8 0.7 5.8 0.7 4.9 0 7.7-2.6 2.9-2.5 2.9-7 0-4.4-2.9-7-2.8-2.5-7.7-2.5-2.3 0-4.6 0.5-2.3 0.5-4.6 1.6zm54.1-1.8q4.1 0.9 6.4 3.7 2.4 2.7 2.4 6.8 0 6.3-4.3 9.7-4.4 3.4-12.3 3.4-2.6 0-5.5-0.5-2.8-0.5-5.8-1.6v-5.5q2.4 1.4 5.2 2.1 2.9 0.7 5.9 0.7 5.4 0 8.2-2.1 2.9-2.1 2.9-6.2 0-3.7-2.7-5.8-2.6-2.1-7.2-2.1h-5v-4.8h5.2q4.2 0 6.4-1.6 2.3-1.7 2.3-4.9 0-3.2-2.3-5-2.3-1.7-6.6-1.7-2.4 0-5.1 0.5-2.7 0.5-5.9 1.6v-5.1q3.2-0.9 6.1-1.4 2.8-0.4 5.4-0.4 6.5 0 10.3 2.9 3.8 3 3.8 8 0 3.5-2 6-2.1 2.4-5.8 3.3zm-38.5 78.1v-22.6l-14.4 22.6zm-19.1-0.8l17.6-26.8h7.2v27.6h6v4.7h-6v10h-5.7v-10h-19.1zm52.5-23q-4.4 0-6.7 4.4-2.2 4.3-2.2 13 0 8.7 2.2 13.1 2.3 4.3 6.7 4.3 4.4 0 6.6-4.3 2.3-4.4 2.3-13.1 0-8.7-2.3-13-2.2-4.4-6.6-4.4zm0-4.5q7.1 0 10.8 5.6 3.8 5.6 3.8 16.3 0 10.7-3.8 16.3-3.7 5.6-10.8 5.6-7.1 0-10.9-5.6-3.7-5.6-3.7-16.3 0-10.7 3.7-16.3 3.8-5.6 10.9-5.6z"/><path  d="m1247 76.3v-5h119v5z"/><path  d="m584.1 69.4v-4.7h36.4v4.7zm0 11.6v-4.8h36.3v4.8z"/><path  d="m1009.1 69.4v-4.7h36.4v4.7zm0 11.6v-4.8h36.3v4.8z"/><path  d="m1197.1 69.4v-4.7h36.4v4.7zm0 11.6v-4.8h36.3v4.8z"/></svg>